# xmcd CD database file
#
# Track frame offsets:
#	150
#	13185
#	33122
#	52890
#	79220
#	105900
#	128980
#	157317
#	188152
#	206682
#	241172
#	265642
#	285777
#	309985
#
# Disc length: 4223 seconds
#
# Revision: 2
# Processed by: cddbd v1.5.2PL0 Copyright (c) Steve Scherf et al.
# Submitted via: CDex 1.98
#
DISCID=ad107d0e
DTITLE=George Michael. - Patience.
DYEAR=2004
DGENRE=Synthpop
TTITLE0=Patience.
TTITLE1=Amazing.
TTITLE2=John And Elvis Are Dead.
TTITLE3=Cars And Trains.
TTITLE4=Round Here.
TTITLE5=Shoot The Dog.
TTITLE6=My Mother Had A Brother.
TTITLE7=Flawless. (Go to the City)
TTITLE8=American Angel.
TTITLE9=Precious Box.
TTITLE10=Please Send Me Someone. (Anselmo's Song)
TTITLE11=Freeek!
TTITLE12=Through.
TTITLE13=Patience PT2
EXTD=YEAR: 2004
EXTT0=
EXTT1=
EXTT2=
EXTT3=
EXTT4=
EXTT5=
EXTT6=
EXTT7=
EXTT8=
EXTT9=
EXTT10=
EXTT11=
EXTT12=
EXTT13=
PLAYORDER=
